<svg width="28" height="28" viewBox="0 0 28 28" fill="none" xmlns="http://www.w3.org/2000/svg">
<path d="M9.26025 18.4896C9.13872 18.368 9.05851 18.2271 9.01962 18.0666C8.98073 17.9014 8.98073 17.7385 9.01962 17.5781C9.05851 17.4177 9.13629 17.2791 9.25296 17.1624L12.6729 13.7425L9.25296 10.3299C9.13629 10.2132 9.05851 10.0747 9.01962 9.91427C8.98073 9.75385 8.98073 9.59343 9.01962 9.43301C9.05851 9.26772 9.13872 9.12431 9.26025 9.00278C9.37693 8.88611 9.51547 8.80833 9.67589 8.76944C9.84118 8.72569 10.004 8.72569 10.1645 8.76944C10.3297 8.80833 10.4707 8.88368 10.5874 8.99549L14 12.4154L17.4199 9.00278C17.5366 8.88611 17.6727 8.80833 17.8283 8.76944C17.9887 8.72569 18.1491 8.72569 18.3095 8.76944C18.4748 8.80833 18.6158 8.88854 18.7325 9.01007C18.8588 9.12675 18.9415 9.26772 18.9804 9.43301C19.0193 9.59343 19.0193 9.75385 18.9804 9.91427C18.9415 10.0747 18.8613 10.2132 18.7397 10.3299L15.3344 13.7425L18.7397 17.1624C18.8613 17.2791 18.9415 17.4177 18.9804 17.5781C19.0193 17.7385 19.0193 17.9014 18.9804 18.0666C18.9415 18.2271 18.8588 18.3656 18.7325 18.4823C18.6158 18.6038 18.4748 18.6864 18.3095 18.7302C18.1491 18.7691 17.9887 18.7691 17.8283 18.7302C17.6727 18.6913 17.5366 18.6111 17.4199 18.4896L14 15.0769L10.5874 18.4969C10.4707 18.6087 10.3297 18.6864 10.1645 18.7302C10.004 18.7691 9.84118 18.7691 9.67589 18.7302C9.51547 18.6864 9.37693 18.6062 9.26025 18.4896Z" fill="white" fill-opacity="0.5" style="mix-blend-mode:overlay"/>
</svg>
